<svg width="850" height="575" viewBox="0 0 850 575" xmlns="http://www.w3.org/2000/svg" role="img" aria-label="Logo 42+" color="#fff">
  <g fill="currentColor">
    <polygon points="25,25 275,25 275,75 187.5,75 187.5,225 275,225 275,275 25,275 25,225 112.5,225 112.5,75 25,75" />
    <polygon points="300,25 375,25 375,275 300,275" />
    <polygon points="400,25 550,25 550,275 475,275 475,75 400,75" />
    <polygon points="575,25 825,25 825,75 737.5,75 735.5,275 662.5,275 662.5,75 575,75" />
    <polygon points="25,475 100,475 100,550 25,550" />
    <polygon points="25,300 275,300 275,450 200,450 200,350 75,350 275,550 200,550 25,375" />
    <polygon points="300,300 375,300 550,475 550,550 400,550 400,475 475,475 375,375 375,550 300,550" />
    <polygon points="625,300 675,300 675,350 725,350 725,400 675,400 675,450 625,450 625,400 575,400 575,350 625,350" />
  </g>

  <!-- Legacy logo backup (previous assets/logo.svg) -->
  <!--
  <svg version="1.0" viewBox="0 0 130 80" xmlns="http://www.w3.org/2000/svg" height="100%" color="#fff">
    <g fill="currentColor" transform="translate(-6, 0)">
      <g transform="scale(1.5333333)">
        <path d="M3 38.3789H28.3611V51H41.0167V28.1925H15.7056L41.0167 3H28.3611L3 28.1925V38.3789Z"></path>
        <path d="M46.469 15.6211L59.1245 3H46.469V15.6211Z"></path>
        <path d="M59.1245 15.6211L46.469 28.1925V40.764H59.1245V28.1925L71.8301 15.6211V3H59.1245V15.6211Z"></path>
        <path d="M71.8301 28.1929L59.1245 40.7643H71.8301V28.1929Z"></path>
      </g>
    </g>
    <g stroke="currentColor" stroke-width="4" transform="translate(12, 6)">
      <line x1="101" y1="11" x2="115" y2="11"></line>
      <line x1="108" y1="4" x2="108" y2="18"></line>
    </g>
  </svg>
  -->
</svg>
