<svg width="850" height="575" viewBox="0 0 850 575" xmlns="http://www.w3.org/2000/svg">
  <polygon
    points="
      25,25   275,25
      275,75  187.5,75
      187.5,225 275,225
      275,275 25,275
      25,225 112.5,225
      112.5,75  25,75
    "
    fill="white"
  />

  <polygon
    points="
      300,25   375,25
      375,275  300,275
    "
    fill="white"
  />

  <polygon
    points="
      400,25   550,25
      550,275  475,275
      475,75  400,75
    "
    fill="white"
  />

  <polygon
    points="
      575,25   825,25
      825,75  737.5,75
      735.5,275  662.5,275
      662.5,75  575,75
    "
    fill="white"
  />

  <polygon
    points="
      25,475   100,475
      100,550  25,550
    "
    fill="white"
  />

  <polygon
    points="
      25,300   275,300
      275,450  200,450
      200,350  75,350
      275,550  200,550
      25,375
    "
    fill="white"
  />

  <polygon
    points="
      300,300  375,300
      550,475  550,550
      400,550  400,475
      475,475  375,375
      375,550  300,550
    "
    fill="white"
  />

  <polygon
    points="
      662.5,300  735.5,300
      735.5,387.5  825,387.5
      825,462.5  735.5,462.5
      735.5,550  662.5,550
      662.5,462.5  575,462.5
      575,387.5  662.5,387.5
    "
    fill="white"
  />
</svg>
